<svg width="826" height="498" viewBox="0 0 826 498" fill="none" xmlns="http://www.w3.org/2000/svg">
<path d="M607.458 45.4894C610.362 42.9048 613.595 40.6819 617.087 38.8914C613.59 35.5406 609.857 32.1738 605.918 28.9002C580.976 8.16832 545.769 -10.4298 510.342 6.76578C475.562 23.6472 460.843 62.8929 454.563 96.1295C453.588 101.29 452.807 106.353 452.184 111.226C452.712 111.208 453.243 111.199 453.776 111.199C457.01 111.199 460.167 111.532 463.213 112.166C463.8 107.638 464.529 102.949 465.43 98.1799C471.592 65.5684 485.442 31.1377 515.173 16.7067C534.169 7.48653 553.652 10.4977 571.67 19.3381C567.239 19.8269 562.731 21.1108 558.207 23.371C537.042 33.9465 531.707 56.7317 531.537 76.6533C535.067 75.4941 538.785 74.7495 542.634 74.4773C543.157 56.8134 548.36 40.6472 563.153 33.2558C571.622 29.0239 579.968 29.4243 588.126 32.6701C594.883 35.3589 601.431 39.9863 607.458 45.4894Z" fill="black"/>
<path d="M461.67 202.621C459.105 203.064 456.467 203.295 453.776 203.295C452.705 203.295 451.642 203.258 450.589 203.186C450.324 211.776 449.832 221.266 448.991 231.319C452.724 229.35 456.552 227.696 460.47 226.358C461.081 217.919 461.456 209.939 461.67 202.621Z" fill="black"/>
<path d="M422.084 365.729C420.147 363.98 418.317 362.052 416.595 359.946C415.85 359.026 415.134 358.077 414.447 357.1C410.598 363.385 406.355 369.273 401.679 374.652C372.026 408.763 336.372 429.987 308.033 442.691C305.671 443.75 303.361 444.749 301.11 445.691C302.493 449.095 303.481 452.701 304.015 456.453C306.778 455.312 309.63 454.087 312.559 452.774C341.858 439.641 379.01 417.58 410.027 381.9C414.401 376.869 418.41 371.452 422.084 365.729Z" fill="black"/>
<path d="M319.832 238.522C316.351 230.785 312.208 222.977 307.335 215.12C265.461 147.597 203.396 131.443 152.339 132.152C135.38 132.387 119.595 134.475 106.089 137.152C107.388 140.556 108.296 144.154 108.755 147.89C121.602 145.371 136.524 143.424 152.493 143.202C200.967 142.529 258.709 157.688 297.935 220.941C303.145 229.342 307.468 237.678 311 245.921C313.871 243.227 316.816 240.761 319.832 238.522Z" fill="black"/>
<path d="M312.133 371.489C315.296 373.352 318.674 374.842 322.259 375.958C320.023 381.812 317.58 387.453 314.998 392.859C307.948 407.623 299.858 420.676 292.109 431.61C289.582 428.901 286.733 426.498 283.622 424.461C290.899 414.119 298.441 401.872 305.017 388.099C307.558 382.778 309.953 377.235 312.133 371.489Z" fill="black"/>
<path d="M276.046 466.428C280.873 464.985 286.723 463.082 293.34 460.633C293.084 456.812 292.215 453.16 290.83 449.773C283.907 452.374 277.821 454.362 272.88 455.839C274.903 453.561 277.103 451.005 279.427 448.186C281.338 445.869 283.335 443.372 285.389 440.703C283.024 437.848 280.215 435.375 277.066 433.389C274.938 436.168 272.868 438.762 270.893 441.157C265.67 447.491 261.119 452.425 257.888 455.763C256.273 457.431 254.989 458.698 254.118 459.541C253.942 459.711 253.782 459.865 253.64 460C253.52 460.115 253.413 460.217 253.318 460.306L253.132 460.482C253.023 460.584 252.942 460.66 252.891 460.707L252.836 460.757L252.825 460.767C252.825 460.767 252.827 460.766 256.555 464.846C260.284 468.927 260.289 468.922 260.289 468.922L260.297 468.915L260.321 468.893L260.404 468.816L260.558 468.673L260.704 468.537L260.93 468.323L261.16 469.479L261.271 470.037C261.317 470.266 261.319 470.266 261.319 470.266L261.325 470.265L261.344 470.261L261.404 470.249L261.616 470.205L261.908 470.144L262.205 470.08L262.398 470.037C263.074 469.889 264.058 469.665 265.321 469.357C267.847 468.741 271.493 467.789 276.046 466.428Z" fill="black"/>
<path d="M97.8878 150.256C97.5339 146.482 96.5803 142.883 95.1233 139.554C92.4955 140.184 89.9897 140.826 87.6171 141.465C79.3913 143.682 72.74 145.879 68.1268 147.53C65.8195 148.356 64.02 149.046 62.7861 149.534C62.1691 149.779 61.6933 149.972 61.366 150.108L61.0984 150.219L60.9873 150.266L60.883 150.31L60.8525 150.323L60.8427 150.327C60.8427 150.327 60.8365 150.33 63.0218 155.405C65.2071 160.481 65.2056 160.482 65.2056 160.482L65.2184 160.477L65.2867 160.448C65.3512 160.42 65.4532 160.378 65.592 160.32C65.8695 160.206 66.2937 160.033 66.8575 159.81C67.9852 159.363 69.6704 158.717 71.8559 157.935C76.2281 156.37 82.5942 154.265 90.4963 152.135C92.8322 151.506 95.2999 150.875 97.8878 150.256Z" fill="black"/>
<path d="M99.0893 326.776C99.0893 339.154 93.5844 349.272 82.5744 357.131C71.7611 364.99 59.3749 368.919 45.4159 368.919C31.4569 368.919 20.3487 365.972 12.0913 360.078C4.03042 354.184 0 348.977 0 344.459C0 341.708 3.4406 337.287 10.3218 331.197C17.203 324.91 23.0029 321.079 27.7214 319.703C37.5517 326.973 45.6125 338.466 51.9039 354.184C59.1783 353.595 62.8155 350.156 62.8155 343.869C62.8155 334.832 54.853 322.061 38.9279 305.558C23.0029 288.858 15.0403 275.596 15.0403 265.772C15.0403 255.949 19.464 248.385 28.3112 243.08C37.1585 237.579 47.7752 234.828 60.1614 234.828C72.7441 234.828 82.1812 237.088 88.4726 241.606C94.764 245.929 97.9097 251.921 97.9097 259.583C97.9097 267.049 91.9132 277.462 79.9203 290.822C81.2965 292.198 83.0659 294.064 85.2286 296.422C87.3913 298.583 90.242 302.807 93.781 309.094C97.3199 315.381 99.0893 321.275 99.0893 326.776ZM70.7781 280.508C79.0355 273.435 83.1642 266.46 83.1642 259.583C83.1642 252.707 78.4457 249.269 69.0086 249.269C64.4867 249.269 60.7512 250.251 57.8021 252.216C54.853 253.984 53.3785 256.047 53.3785 258.405C53.3785 262.727 57.7038 268.818 66.3545 276.676L70.7781 280.508Z" fill="black"/>
<path d="M119.281 341.217L122.525 264.299C122.525 257.619 118.986 250.742 111.909 243.669L112.498 240.133C113.875 239.74 115.153 239.445 116.332 239.249C117.708 238.856 119.183 238.463 120.756 238.07C122.525 237.677 124.491 237.284 126.654 236.891C128.817 236.498 131.078 236.105 133.437 235.712C138.942 235.123 144.054 234.828 148.772 234.828C153.687 234.828 157.816 236.793 161.158 240.722C164.697 244.652 166.467 250.939 166.467 259.583C166.467 268.032 165.09 280.213 162.338 296.127C159.782 311.845 158.504 323.633 158.504 331.492C158.504 339.154 160.372 342.985 164.107 342.985C170.202 342.985 176.887 339.154 184.161 331.492C184.358 328.348 185.636 318.328 187.995 301.432C190.354 284.535 191.534 272.256 191.534 264.593C191.534 256.931 190.944 250.349 189.765 244.848C204.903 239.151 218.469 236.302 230.462 236.302C233.018 238.07 234.296 243.866 234.296 253.689C234.296 263.316 232.625 276.775 229.282 294.064C225.94 311.157 224.269 323.633 224.269 331.492C224.269 339.154 225.842 342.985 228.987 342.985C236.458 342.985 244.618 337.484 253.465 326.482C262.312 315.283 267.031 305.95 267.62 298.485L247.567 276.087C248.353 267.639 250.417 259.976 253.76 253.1C257.102 246.224 260.248 241.41 263.197 238.659L267.325 234.828C275.78 234.828 282.169 237.088 286.495 241.606C290.82 246.125 292.983 251.43 292.983 257.521C292.983 273.042 289.149 289.447 281.481 306.736C273.813 324.026 263.492 338.761 250.516 350.942C237.54 362.927 224.367 368.919 210.998 368.919C204.313 368.919 198.612 367.053 193.893 363.32C189.371 359.39 186.324 354.38 184.751 348.29C170.989 362.043 157.619 368.919 144.643 368.919C135.993 368.919 129.603 366.267 125.474 360.962C121.346 355.461 119.281 348.879 119.281 341.217Z" fill="black"/>
<path d="M295.644 314.399C295.644 289.84 303.016 270.488 317.762 256.342C332.704 241.999 349.612 234.828 368.486 234.828C380.086 234.828 389.621 237.677 397.092 243.375C404.563 249.072 408.299 256.735 408.299 266.362C408.299 275.792 405.841 283.749 400.926 290.233C396.207 296.716 390.408 301.726 383.526 305.263C369.567 312.139 356.788 316.462 345.188 318.23L338.11 319.114C339.487 337.582 347.056 346.816 360.818 346.816C365.537 346.816 370.55 345.637 375.859 343.28C381.167 340.922 385.296 338.565 388.245 336.207L392.669 332.67L399.746 342.101C398.174 344.262 395.028 347.111 390.309 350.647C385.591 354.184 381.167 357.131 377.038 359.489C365.635 365.776 353.151 368.919 339.585 368.919C326.019 368.919 315.304 364.106 307.44 354.479C299.576 344.852 295.644 331.492 295.644 314.399ZM337.816 304.673C347.842 302.905 355.805 298.681 361.703 292.001C367.601 285.321 370.55 276.676 370.55 266.067C370.55 255.458 367.405 250.153 361.113 250.153C353.642 250.153 347.842 256.538 343.714 269.309C339.782 281.883 337.816 293.671 337.816 304.673Z" fill="black"/>
<path d="M413.434 314.399C413.434 289.84 420.807 270.488 435.552 256.342C450.494 241.999 467.403 234.828 486.277 234.828C497.876 234.828 507.412 237.677 514.883 243.375C522.354 249.072 526.089 256.735 526.089 266.362C526.089 275.792 523.632 283.749 518.717 290.233C513.998 296.716 508.198 301.726 501.317 305.263C487.358 312.139 474.579 316.462 462.979 318.23L455.901 319.114C457.277 337.582 464.847 346.816 478.609 346.816C483.328 346.816 488.341 345.637 493.649 343.28C498.958 340.922 503.087 338.565 506.036 336.207L510.459 332.67L517.537 342.101C515.964 344.262 512.819 347.111 508.1 350.647C503.381 354.184 498.958 357.131 494.829 359.489C483.426 365.776 470.941 368.919 457.376 368.919C443.81 368.919 433.095 364.106 425.231 354.479C417.366 344.852 413.434 331.492 413.434 314.399ZM455.606 304.673C465.633 302.905 473.596 298.681 479.494 292.001C485.392 285.321 488.341 276.676 488.341 266.067C488.341 255.458 485.195 250.153 478.904 250.153C471.433 250.153 465.633 256.538 461.504 269.309C457.572 281.883 455.606 293.671 455.606 304.673Z" fill="black"/>
<path d="M624.711 238.365C624.318 243.276 622.647 248.974 619.698 255.458C612.227 254.672 605.149 254.279 598.464 254.279H593.156C584.112 298.092 579.59 325.401 579.59 336.207C579.59 341.905 580.77 344.753 583.129 344.753C585.685 344.753 592.271 342.297 602.888 337.386L608.196 347.111C590.698 361.65 574.478 368.919 559.536 368.919C552.655 368.919 546.953 366.758 542.432 362.436C538.106 358.113 535.943 352.416 535.943 345.343C535.943 338.073 536.73 329.92 538.303 320.882C540.072 311.845 542.431 300.842 545.381 287.875C548.33 274.712 550.492 264.102 551.869 256.047C544.594 256.636 539.187 257.226 535.649 257.815C535.255 255.458 535.059 252.314 535.059 248.385C535.059 244.259 535.354 240.919 535.943 238.365H554.523C556.096 227.755 556.882 217.735 556.882 208.305L556.587 199.169V198.285C571.922 192.98 586.373 190.328 599.939 190.328C600.725 194.257 601.118 199.169 601.118 205.063C601.118 210.957 599.447 222.058 596.105 238.365H624.711Z" fill="black"/>
<path d="M642.088 368.919C635.403 368.919 629.8 366.66 625.278 362.141C620.952 357.622 618.79 351.335 618.79 343.28C618.79 335.028 623.607 308.996 633.24 265.183C643.071 221.174 647.986 189.444 647.986 169.993L646.216 157.026C661.552 151.721 675.904 149.069 689.273 149.069C691.239 151.82 692.222 156.633 692.222 163.509C692.222 179.227 687.209 209.68 677.182 254.868C667.351 299.86 662.436 326.089 662.436 333.555C662.436 340.824 663.321 344.459 665.09 344.459L685.734 337.091L691.042 347.406C684.358 352.71 676.199 357.622 666.565 362.141C657.128 366.66 648.969 368.919 642.088 368.919Z" fill="black"/>
<path d="M737.822 397.211C731.334 401.14 728.09 404.971 728.09 408.704C728.09 412.437 730.155 414.304 734.283 414.304C738.609 414.304 743.426 412.241 748.734 408.115C754.042 404.186 758.466 397.702 762.005 388.664C752.568 390.433 744.507 393.282 737.822 397.211ZM723.667 366.562C707.152 366.562 698.894 357.524 698.894 339.449C698.894 335.126 700.86 322.65 704.793 302.021C708.725 281.392 710.691 264.201 710.691 250.448C710.691 247.501 710.297 244.75 709.511 242.196C720.128 238.07 734.677 236.007 753.158 236.007C754.141 238.758 754.632 243.473 754.632 250.153C754.632 256.833 752.469 270.684 748.144 291.706C743.819 312.729 741.656 326.285 741.656 332.376C741.656 338.466 744.212 341.512 749.324 341.512C755.419 341.512 762.791 338.466 771.442 332.376C772.425 320.784 776.357 290.233 783.238 240.722C790.119 237.972 802.506 236.596 820.397 236.596H826C822.264 251.332 818.627 272.551 815.088 300.253C811.549 327.955 808.699 347.209 806.536 358.015C802.407 379.627 794.74 397.211 783.533 410.767C772.523 424.52 758.073 431.397 740.182 431.397C733.104 431.397 726.616 429.53 720.718 425.797C715.016 422.064 712.165 417.251 712.165 411.357C712.165 403.498 716.982 396.327 726.616 389.843C736.249 383.36 749.225 378.35 765.544 374.813C767.313 366.169 768.689 357.819 769.672 349.763C753.747 360.962 738.412 366.562 723.667 366.562Z" fill="black"/>
<path d="M293.419 463.004C293.419 482.332 277.74 498 258.399 498C239.058 498 223.378 482.332 223.378 463.004C223.378 443.676 239.058 428.007 258.399 428.007C277.74 428.007 293.419 443.676 293.419 463.004Z" fill="#A9DEF9"/>
<path d="M98.0422 153.563C98.0422 172.891 82.363 188.559 63.0218 188.559C43.6805 188.559 28.0014 172.891 28.0014 153.563C28.0014 134.235 43.6805 118.567 63.0218 118.567C82.363 118.567 98.0422 134.235 98.0422 153.563Z" fill="#E4C1F9"/>
<path d="M673.114 79.8867C673.114 99.2146 657.435 114.883 638.094 114.883C618.752 114.883 603.073 99.2146 603.073 79.8867C603.073 60.5588 618.752 44.8905 638.094 44.8905C657.435 44.8905 673.114 60.5588 673.114 79.8867Z" fill="#EDE7B1"/>
<path d="M580.955 120.409C580.955 139.737 565.276 155.405 545.935 155.405C526.593 155.405 510.914 139.737 510.914 120.409C510.914 101.081 526.593 85.4125 545.935 85.4125C565.276 85.4125 580.955 101.081 580.955 120.409Z" fill="#F694C1"/>
<path d="M488.796 157.247C488.796 176.575 473.117 192.243 453.776 192.243C434.434 192.243 418.755 176.575 418.755 157.247C418.755 137.919 434.434 122.251 453.776 122.251C473.117 122.251 488.796 137.919 488.796 157.247Z" fill="#D3F8E2"/>
</svg>
