<svg width="225" height="136" viewBox="0 0 225 136" fill="none" xmlns="http://www.w3.org/2000/svg">
<path d="M164.785 12.3484C165.573 11.6468 166.45 11.0434 167.397 10.5574C166.449 9.64777 165.436 8.73383 164.368 7.84517C157.602 2.21735 148.051 -2.83126 138.441 1.83662C129.006 6.4192 125.013 17.0727 123.309 26.0951C123.045 27.496 122.833 28.8703 122.664 30.1932C122.807 30.1883 122.951 30.1858 123.096 30.1858C123.973 30.1858 124.83 30.2762 125.656 30.4482C125.815 29.2191 126.013 27.9463 126.257 26.6517C127.929 17.799 131.686 8.45256 139.751 4.53515C144.904 2.03228 150.189 2.84968 155.077 5.24946C153.875 5.38217 152.652 5.7307 151.425 6.34424C145.684 9.21504 144.236 15.4002 144.19 20.8081C145.148 20.4934 146.157 20.2913 147.201 20.2174C147.343 15.4224 148.754 11.034 152.767 9.02752C155.064 7.87876 157.328 7.98745 159.541 8.86855C161.374 9.59843 163.151 10.8546 164.785 12.3484Z" fill="black"/>
<path d="M125.237 55.0031C124.542 55.1232 123.826 55.1858 123.096 55.1858C122.805 55.1858 122.517 55.1759 122.231 55.1564C122.16 57.4881 122.026 60.0643 121.798 62.7934C122.811 62.2588 123.849 61.8097 124.912 61.4465C125.078 59.1558 125.179 56.9896 125.237 55.0031Z" fill="black"/>
<path d="M114.499 99.28C113.974 98.8052 113.477 98.2818 113.01 97.71C112.808 97.4603 112.614 97.2026 112.427 96.9374C111.383 98.6435 110.232 100.242 108.964 101.702C100.92 110.962 91.2478 116.723 83.5602 120.172C82.9194 120.459 82.2927 120.73 81.6824 120.986C82.0575 121.91 82.3253 122.889 82.4704 123.908C83.2197 123.598 83.9935 123.265 84.7881 122.909C92.736 119.344 102.814 113.355 111.228 103.67C112.415 102.304 113.502 100.833 114.499 99.28Z" fill="black"/>
<path d="M86.7611 64.7485C85.8166 62.6484 84.6928 60.5289 83.371 58.3958C72.0118 40.0663 55.1753 35.6813 41.3251 35.8736C36.7246 35.9375 32.4426 36.5043 28.7787 37.2308C29.1313 38.155 29.3774 39.1317 29.502 40.146C32.9869 39.4621 37.035 38.9335 41.3668 38.8733C54.5165 38.6907 70.1801 42.8057 80.8209 59.9761C82.2342 62.2566 83.4071 64.5194 84.3652 66.7571C85.1438 66.0259 85.9427 65.3563 86.7611 64.7485Z" fill="black"/>
<path d="M84.6723 100.843C85.5306 101.349 86.4469 101.754 87.4195 102.057C86.8127 103.646 86.15 105.177 85.4497 106.644C83.5373 110.652 81.3426 114.196 79.2405 117.164C78.5551 116.429 77.7821 115.776 76.9382 115.223C78.9123 112.416 80.9582 109.091 82.7421 105.353C83.4314 103.908 84.0811 102.403 84.6723 100.843Z" fill="black"/>
<path d="M74.8832 126.615C76.1925 126.224 77.7794 125.707 79.5745 125.042C79.5051 124.005 79.2693 123.014 78.8935 122.094C77.0157 122.8 75.3647 123.34 74.0242 123.741C74.573 123.123 75.1697 122.429 75.8004 121.663C76.3187 121.034 76.8604 120.357 77.4177 119.632C76.7762 118.857 76.014 118.186 75.1599 117.647C74.5825 118.401 74.0211 119.105 73.4852 119.756C72.0684 121.475 70.8337 122.814 69.9573 123.72C69.5192 124.173 69.171 124.517 68.9348 124.746C68.8868 124.792 68.8436 124.834 68.8051 124.871C68.7725 124.902 68.7433 124.929 68.7177 124.954L68.6672 125.001C68.6376 125.029 68.6156 125.049 68.6017 125.062L68.5869 125.076L68.5839 125.079C68.5839 125.079 68.5845 125.078 69.5959 126.186C70.6073 127.294 70.6087 127.292 70.6087 127.292L70.6108 127.291L70.6174 127.284L70.6399 127.264L70.6816 127.225L70.7212 127.188L70.7827 127.13L70.8449 127.444L70.8751 127.595C70.8876 127.657 70.888 127.657 70.888 127.657L70.8898 127.657L70.8948 127.656L70.9112 127.653L70.9688 127.641L71.0479 127.624L71.1284 127.607L71.1808 127.595C71.3643 127.555 71.6311 127.494 71.9737 127.41C72.6588 127.243 73.6481 126.985 74.8832 126.615Z" fill="black"/>
<path d="M26.5541 40.7881C26.4581 39.7637 26.1994 38.7866 25.8041 37.8828C25.0913 38.0541 24.4115 38.2282 23.7679 38.4018C21.5365 39.0035 19.7322 39.6 18.4808 40.0482C17.8549 40.2724 17.3667 40.4597 17.032 40.5922C16.8646 40.6585 16.7356 40.7111 16.6468 40.7478L16.5742 40.778L16.544 40.7907L16.5158 40.8027L16.5075 40.8062L16.5048 40.8074C16.5048 40.8074 16.5031 40.8081 17.0959 42.186C17.6888 43.5639 17.6883 43.564 17.6883 43.564L17.6918 43.5626L17.7104 43.5547C17.7278 43.5473 17.7555 43.5357 17.7932 43.5202C17.8684 43.489 17.9835 43.4421 18.1365 43.3815C18.4424 43.2604 18.8995 43.0849 19.4924 42.8725C20.6784 42.4477 22.4054 41.8763 24.549 41.2983C25.1826 41.1275 25.852 40.9562 26.5541 40.7881Z" fill="black"/>
<path d="M26.88 88.7059C26.88 92.0659 25.3867 94.8126 22.4 96.9459C19.4667 99.0792 16.1067 100.146 12.32 100.146C8.53333 100.146 5.52 99.3459 3.28 97.7459C1.09333 96.1459 0 94.7325 0 93.5059C0 92.7592 0.933333 91.5592 2.8 89.9059C4.66667 88.1992 6.24 87.1592 7.52 86.7859C10.1867 88.7592 12.3733 91.8792 14.08 96.1459C16.0533 95.9859 17.04 95.0526 17.04 93.3459C17.04 90.8926 14.88 87.4259 10.56 82.9459C6.24 78.4126 4.08 74.8125 4.08 72.1459C4.08 69.4792 5.28 67.4259 7.68 65.9859C10.08 64.4926 12.96 63.7459 16.32 63.7459C19.7333 63.7459 22.2933 64.3592 24 65.5859C25.7067 66.7592 26.56 68.3859 26.56 70.4659C26.56 72.4925 24.9333 75.3192 21.68 78.9459C22.0533 79.3192 22.5333 79.8259 23.12 80.4659C23.7067 81.0525 24.48 82.1992 25.44 83.9059C26.4 85.6126 26.88 87.2126 26.88 88.7059ZM19.2 76.1459C21.44 74.2259 22.56 72.3325 22.56 70.4659C22.56 68.5992 21.28 67.6659 18.72 67.6659C17.4933 67.6659 16.48 67.9325 15.68 68.4659C14.88 68.9459 14.48 69.5059 14.48 70.1459C14.48 71.3192 15.6533 72.9725 18 75.1059L19.2 76.1459Z" fill="black"/>
<path d="M32.3575 92.6259L33.2375 71.7459C33.2375 69.9325 32.2775 68.0659 30.3575 66.1459L30.5175 65.1859C30.8908 65.0792 31.2375 64.9992 31.5575 64.9459C31.9308 64.8392 32.3308 64.7326 32.7575 64.6259C33.2375 64.5192 33.7708 64.4126 34.3575 64.3059C34.9442 64.1992 35.5575 64.0925 36.1975 63.9859C37.6908 63.8259 39.0775 63.7459 40.3575 63.7459C41.6908 63.7459 42.8108 64.2792 43.7175 65.3459C44.6775 66.4126 45.1575 68.1192 45.1575 70.4659C45.1575 72.7592 44.7842 76.0659 44.0375 80.3859C43.3442 84.6526 42.9975 87.8526 42.9975 89.9859C42.9975 92.0659 43.5042 93.1059 44.5175 93.1059C46.1708 93.1059 47.9842 92.0659 49.9575 89.9859C50.0108 89.1326 50.3575 86.4125 50.9975 81.8259C51.6375 77.2392 51.9575 73.9059 51.9575 71.8259C51.9575 69.7459 51.7975 67.9592 51.4775 66.4659C55.5842 64.9192 59.2642 64.1459 62.5175 64.1459C63.2108 64.6259 63.5575 66.1992 63.5575 68.8659C63.5575 71.4792 63.1042 75.1325 62.1975 79.8259C61.2908 84.4659 60.8375 87.8526 60.8375 89.9859C60.8375 92.0659 61.2642 93.1059 62.1175 93.1059C64.1442 93.1059 66.3575 91.6126 68.7575 88.6259C71.1575 85.5859 72.4375 83.0526 72.5975 81.0259L67.1575 74.9459C67.3708 72.6526 67.9308 70.5726 68.8375 68.7059C69.7442 66.8392 70.5975 65.5325 71.3975 64.7859L72.5175 63.7459C74.8108 63.7459 76.5442 64.3592 77.7175 65.5859C78.8908 66.8126 79.4775 68.2526 79.4775 69.9059C79.4775 74.1192 78.4375 78.5726 76.3575 83.2659C74.2775 87.9592 71.4775 91.9592 67.9575 95.2659C64.4375 98.5192 60.8642 100.146 57.2375 100.146C55.4242 100.146 53.8775 99.6392 52.5975 98.6259C51.3708 97.5592 50.5442 96.1992 50.1175 94.5459C46.3842 98.2792 42.7575 100.146 39.2375 100.146C36.8908 100.146 35.1575 99.4259 34.0375 97.9859C32.9175 96.4926 32.3575 94.7059 32.3575 92.6259Z" fill="black"/>
<path d="M80.1994 85.3459C80.1994 78.6792 82.1994 73.4259 86.1994 69.5859C90.2527 65.6925 94.8394 63.7459 99.9594 63.7459C103.106 63.7459 105.693 64.5192 107.719 66.0659C109.746 67.6125 110.759 69.6926 110.759 72.3059C110.759 74.8659 110.093 77.0259 108.759 78.7859C107.479 80.5459 105.906 81.9059 104.039 82.8659C100.253 84.7325 96.786 85.9059 93.6394 86.3859L91.7194 86.6259C92.0927 91.6392 94.146 94.1459 97.8794 94.1459C99.1594 94.1459 100.519 93.8259 101.959 93.1859C103.399 92.5459 104.519 91.9059 105.319 91.2659L106.519 90.3059L108.439 92.8659C108.013 93.4525 107.159 94.2259 105.879 95.1859C104.599 96.1459 103.399 96.9459 102.279 97.5859C99.186 99.2926 95.7994 100.146 92.1194 100.146C88.4394 100.146 85.5327 98.8392 83.3994 96.2259C81.266 93.6126 80.1994 89.9859 80.1994 85.3459ZM91.6394 82.7059C94.3594 82.2259 96.5194 81.0792 98.1194 79.2659C99.7194 77.4526 100.519 75.1059 100.519 72.2259C100.519 69.3459 99.666 67.9059 97.9594 67.9059C95.9327 67.9059 94.3594 69.6392 93.2394 73.1059C92.1727 76.5192 91.6394 79.7192 91.6394 82.7059Z" fill="black"/>
<path d="M112.152 85.3459C112.152 78.6792 114.153 73.4259 118.153 69.5859C122.206 65.6925 126.793 63.7459 131.913 63.7459C135.059 63.7459 137.646 64.5192 139.673 66.0659C141.699 67.6125 142.713 69.6926 142.713 72.3059C142.713 74.8659 142.046 77.0259 140.712 78.7859C139.432 80.5459 137.859 81.9059 135.992 82.8659C132.206 84.7325 128.739 85.9059 125.592 86.3859L123.673 86.6259C124.046 91.6392 126.099 94.1459 129.833 94.1459C131.113 94.1459 132.473 93.8259 133.913 93.1859C135.353 92.5459 136.473 91.9059 137.273 91.2659L138.473 90.3059L140.393 92.8659C139.966 93.4525 139.113 94.2259 137.833 95.1859C136.553 96.1459 135.352 96.9459 134.232 97.5859C131.139 99.2926 127.753 100.146 124.073 100.146C120.393 100.146 117.486 98.8392 115.353 96.2259C113.219 93.6126 112.152 89.9859 112.152 85.3459ZM123.592 82.7059C126.312 82.2259 128.472 81.0792 130.072 79.2659C131.672 77.4526 132.473 75.1059 132.473 72.2259C132.473 69.3459 131.619 67.9059 129.913 67.9059C127.886 67.9059 126.312 69.6392 125.192 73.1059C124.126 76.5192 123.592 79.7192 123.592 82.7059Z" fill="black"/>
<path d="M169.466 64.7059C169.359 66.0392 168.906 67.5859 168.106 69.3459C166.079 69.1326 164.159 69.0259 162.346 69.0259H160.906C158.452 80.9192 157.226 88.3326 157.226 91.2659C157.226 92.8126 157.546 93.5859 158.186 93.5859C158.879 93.5859 160.666 92.9192 163.546 91.5859L164.986 94.2259C160.239 98.1726 155.839 100.146 151.786 100.146C149.919 100.146 148.372 99.5592 147.146 98.3859C145.972 97.2126 145.386 95.6659 145.386 93.7459C145.386 91.7726 145.599 89.5592 146.026 87.1059C146.506 84.6526 147.146 81.6659 147.946 78.1459C148.746 74.5725 149.332 71.6925 149.706 69.5059C147.732 69.6659 146.266 69.8259 145.306 69.9859C145.199 69.3459 145.146 68.4925 145.146 67.4259C145.146 66.3059 145.226 65.3992 145.386 64.7059H150.426C150.852 61.8259 151.066 59.1059 151.066 56.5459L150.986 54.0659V53.8259C155.146 52.3859 159.066 51.6659 162.746 51.6659C162.959 52.7326 163.066 54.0659 163.066 55.6659C163.066 57.2659 162.612 60.2792 161.706 64.7059H169.466Z" fill="black"/>
<path d="M174.179 100.146C172.366 100.146 170.846 99.5326 169.619 98.3059C168.446 97.0792 167.859 95.3725 167.859 93.1859C167.859 90.9459 169.166 83.8792 171.779 71.9859C174.446 60.0392 175.779 51.4259 175.779 46.1459L175.299 42.6259C179.459 41.1859 183.353 40.4659 186.979 40.4659C187.513 41.2125 187.779 42.5192 187.779 44.3859C187.779 48.6525 186.419 56.9192 183.699 69.1859C181.033 81.3992 179.699 88.5192 179.699 90.5459C179.699 92.5192 179.939 93.5059 180.419 93.5059L186.019 91.5059L187.459 94.3059C185.646 95.7459 183.433 97.0792 180.819 98.3059C178.259 99.5326 176.046 100.146 174.179 100.146Z" fill="black"/>
<path d="M200.149 107.826C198.389 108.893 197.509 109.933 197.509 110.946C197.509 111.959 198.069 112.466 199.189 112.466C200.363 112.466 201.669 111.906 203.109 110.786C204.549 109.719 205.749 107.959 206.709 105.506C204.149 105.986 201.963 106.759 200.149 107.826ZM196.309 99.5059C191.829 99.5059 189.589 97.0525 189.589 92.1459C189.589 90.9725 190.123 87.5859 191.189 81.9859C192.256 76.3859 192.789 71.7192 192.789 67.9859C192.789 67.1859 192.683 66.4392 192.469 65.7459C195.349 64.6259 199.296 64.0659 204.309 64.0659C204.576 64.8126 204.709 66.0926 204.709 67.9059C204.709 69.7192 204.123 73.4792 202.949 79.1859C201.776 84.8925 201.189 88.5725 201.189 90.2259C201.189 91.8792 201.883 92.7059 203.269 92.7059C204.923 92.7059 206.923 91.8792 209.269 90.2259C209.536 87.0792 210.603 78.7859 212.469 65.3459C214.336 64.5992 217.696 64.2259 222.549 64.2259H224.069C223.056 68.2259 222.069 73.9859 221.109 81.5059C220.149 89.0259 219.376 94.2525 218.789 97.1859C217.669 103.053 215.589 107.826 212.549 111.506C209.563 115.239 205.643 117.106 200.789 117.106C198.869 117.106 197.109 116.599 195.509 115.586C193.963 114.573 193.189 113.266 193.189 111.666C193.189 109.533 194.496 107.586 197.109 105.826C199.723 104.066 203.243 102.706 207.669 101.746C208.149 99.3992 208.523 97.1326 208.789 94.9459C204.469 97.9859 200.309 99.5059 196.309 99.5059Z" fill="black"/>
<path d="M79.5959 125.686C79.5959 130.933 75.3426 135.186 70.0959 135.186C64.8492 135.186 60.5959 130.933 60.5959 125.686C60.5959 120.439 64.8492 116.186 70.0959 116.186C75.3426 116.186 79.5959 120.439 79.5959 125.686Z" fill="#A9DEF9"/>
<path d="M26.5959 41.6858C26.5959 46.9325 22.3426 51.1858 17.0959 51.1858C11.8492 51.1858 7.59594 46.9325 7.59594 41.6858C7.59594 36.4391 11.8492 32.1858 17.0959 32.1858C22.3426 32.1858 26.5959 36.4391 26.5959 41.6858Z" fill="#E4C1F9"/>
<path d="M182.596 21.6859C182.596 26.9326 178.343 31.1859 173.096 31.1859C167.849 31.1859 163.596 26.9326 163.596 21.6859C163.596 16.4391 167.849 12.1859 173.096 12.1859C178.343 12.1859 182.596 16.4391 182.596 21.6859Z" fill="#EDE7B1"/>
<path d="M157.596 32.6859C157.596 37.9326 153.343 42.1859 148.096 42.1859C142.849 42.1859 138.596 37.9326 138.596 32.6859C138.596 27.4391 142.849 23.1859 148.096 23.1859C153.343 23.1859 157.596 27.4391 157.596 32.6859Z" fill="#F694C1"/>
<path d="M132.596 42.6858C132.596 47.9325 128.343 52.1858 123.096 52.1858C117.849 52.1858 113.596 47.9325 113.596 42.6858C113.596 37.4391 117.849 33.1858 123.096 33.1858C128.343 33.1858 132.596 37.4391 132.596 42.6858Z" fill="#D3F8E2"/>
</svg>
